<mxfile host="app.diagrams.net" modified="2024-01-24T09:18:54.650Z" agent="Mozilla/5.0 (Windows NT 10.0; Win64; x64) AppleWebKit/537.36 (KHTML, like Gecko) Chrome/120.0.0.0 Safari/537.36" etag="cGo6CBQz440U2un3sUN5" version="22.1.17" type="github">
  <diagram name="第 1 页" id="AZ9xIIJotZ_00Vsyfa0N">
    <mxGraphModel dx="1050" dy="618" grid="0" gridSize="10" guides="1" tooltips="1" connect="1" arrows="1" fold="1" page="1" pageScale="1" pageWidth="827" pageHeight="1169" math="0" shadow="0">
      <root>
        <mxCell id="0" />
        <mxCell id="1" parent="0" />
        <mxCell id="-EQdU9CbAoRiwT4EUDCg-22" value="" style="rounded=0;whiteSpace=wrap;html=1;" vertex="1" parent="1">
          <mxGeometry x="70" y="70" width="640" height="440" as="geometry" />
        </mxCell>
        <mxCell id="-EQdU9CbAoRiwT4EUDCg-4" style="edgeStyle=orthogonalEdgeStyle;rounded=0;orthogonalLoop=1;jettySize=auto;html=1;endArrow=none;endFill=0;" edge="1" parent="1" source="-EQdU9CbAoRiwT4EUDCg-1">
          <mxGeometry relative="1" as="geometry">
            <mxPoint x="160" y="480" as="targetPoint" />
          </mxGeometry>
        </mxCell>
        <mxCell id="-EQdU9CbAoRiwT4EUDCg-1" value="Client" style="rounded=1;whiteSpace=wrap;html=1;fillColor=#e1d5e7;strokeColor=#9673a6;" vertex="1" parent="1">
          <mxGeometry x="120" y="120" width="80" height="40" as="geometry" />
        </mxCell>
        <mxCell id="-EQdU9CbAoRiwT4EUDCg-5" style="edgeStyle=orthogonalEdgeStyle;rounded=0;orthogonalLoop=1;jettySize=auto;html=1;exitX=0.5;exitY=1;exitDx=0;exitDy=0;endArrow=none;endFill=0;" edge="1" parent="1" source="-EQdU9CbAoRiwT4EUDCg-2">
          <mxGeometry relative="1" as="geometry">
            <mxPoint x="345" y="480" as="targetPoint" />
          </mxGeometry>
        </mxCell>
        <mxCell id="-EQdU9CbAoRiwT4EUDCg-7" style="edgeStyle=orthogonalEdgeStyle;rounded=0;orthogonalLoop=1;jettySize=auto;html=1;exitX=1;exitY=0.5;exitDx=0;exitDy=0;entryX=0;entryY=0.5;entryDx=0;entryDy=0;" edge="1" parent="1" source="-EQdU9CbAoRiwT4EUDCg-2" target="-EQdU9CbAoRiwT4EUDCg-3">
          <mxGeometry relative="1" as="geometry" />
        </mxCell>
        <mxCell id="-EQdU9CbAoRiwT4EUDCg-2" value="CountDownLatch" style="rounded=1;whiteSpace=wrap;html=1;fillColor=#ffe6cc;strokeColor=#d79b00;" vertex="1" parent="1">
          <mxGeometry x="280" y="120" width="130" height="40" as="geometry" />
        </mxCell>
        <mxCell id="-EQdU9CbAoRiwT4EUDCg-6" style="edgeStyle=orthogonalEdgeStyle;rounded=0;orthogonalLoop=1;jettySize=auto;html=1;exitX=0.5;exitY=1;exitDx=0;exitDy=0;endArrow=none;endFill=0;" edge="1" parent="1" source="-EQdU9CbAoRiwT4EUDCg-3">
          <mxGeometry relative="1" as="geometry">
            <mxPoint x="570" y="480" as="targetPoint" />
          </mxGeometry>
        </mxCell>
        <mxCell id="-EQdU9CbAoRiwT4EUDCg-3" value="AbstractQueuedSynchronizer" style="rounded=1;whiteSpace=wrap;html=1;fillColor=#f8cecc;strokeColor=#b85450;" vertex="1" parent="1">
          <mxGeometry x="480" y="120" width="180" height="40" as="geometry" />
        </mxCell>
        <mxCell id="-EQdU9CbAoRiwT4EUDCg-8" value="&lt;font face=&quot;Comic Sans MS&quot;&gt;内部实现&lt;br&gt;Sync&lt;/font&gt;" style="text;html=1;align=center;verticalAlign=middle;resizable=0;points=[];autosize=1;strokeColor=none;fillColor=none;" vertex="1" parent="1">
          <mxGeometry x="410" y="100" width="70" height="40" as="geometry" />
        </mxCell>
        <mxCell id="-EQdU9CbAoRiwT4EUDCg-9" value="" style="endArrow=classic;html=1;rounded=0;" edge="1" parent="1">
          <mxGeometry width="50" height="50" relative="1" as="geometry">
            <mxPoint x="160" y="200" as="sourcePoint" />
            <mxPoint x="340" y="200" as="targetPoint" />
          </mxGeometry>
        </mxCell>
        <mxCell id="-EQdU9CbAoRiwT4EUDCg-10" value="&lt;font face=&quot;Comic Sans MS&quot;&gt;await()&lt;/font&gt;" style="text;html=1;align=center;verticalAlign=middle;resizable=0;points=[];autosize=1;strokeColor=none;fillColor=none;" vertex="1" parent="1">
          <mxGeometry x="220" y="170" width="60" height="30" as="geometry" />
        </mxCell>
        <mxCell id="-EQdU9CbAoRiwT4EUDCg-11" value="" style="endArrow=classic;html=1;rounded=0;" edge="1" parent="1">
          <mxGeometry width="50" height="50" relative="1" as="geometry">
            <mxPoint x="350" y="240" as="sourcePoint" />
            <mxPoint x="570" y="240" as="targetPoint" />
          </mxGeometry>
        </mxCell>
        <mxCell id="-EQdU9CbAoRiwT4EUDCg-12" value="&lt;font face=&quot;Comic Sans MS&quot;&gt;acquireSharedInterruptibly()&lt;/font&gt;" style="text;html=1;align=center;verticalAlign=middle;resizable=0;points=[];autosize=1;strokeColor=none;fillColor=none;" vertex="1" parent="1">
          <mxGeometry x="355" y="210" width="190" height="30" as="geometry" />
        </mxCell>
        <mxCell id="-EQdU9CbAoRiwT4EUDCg-13" value="" style="edgeStyle=none;orthogonalLoop=1;jettySize=auto;html=1;rounded=0;" edge="1" parent="1">
          <mxGeometry width="100" relative="1" as="geometry">
            <mxPoint x="570" y="290" as="sourcePoint" />
            <mxPoint x="350" y="290" as="targetPoint" />
            <Array as="points" />
          </mxGeometry>
        </mxCell>
        <mxCell id="-EQdU9CbAoRiwT4EUDCg-14" value="&lt;font face=&quot;Comic Sans MS&quot;&gt;Sync内部重写tryAcquireShared()&lt;/font&gt;" style="text;html=1;align=center;verticalAlign=middle;resizable=0;points=[];autosize=1;strokeColor=none;fillColor=none;" vertex="1" parent="1">
          <mxGeometry x="350" y="260" width="210" height="30" as="geometry" />
        </mxCell>
        <mxCell id="-EQdU9CbAoRiwT4EUDCg-16" value="" style="endArrow=classic;html=1;rounded=0;" edge="1" parent="1">
          <mxGeometry width="50" height="50" relative="1" as="geometry">
            <mxPoint x="160" y="350" as="sourcePoint" />
            <mxPoint x="340" y="350" as="targetPoint" />
          </mxGeometry>
        </mxCell>
        <mxCell id="-EQdU9CbAoRiwT4EUDCg-17" value="&lt;font face=&quot;Comic Sans MS&quot;&gt;countDown()&lt;/font&gt;" style="text;html=1;align=center;verticalAlign=middle;resizable=0;points=[];autosize=1;strokeColor=none;fillColor=none;" vertex="1" parent="1">
          <mxGeometry x="205" y="320" width="90" height="30" as="geometry" />
        </mxCell>
        <mxCell id="-EQdU9CbAoRiwT4EUDCg-18" value="" style="endArrow=classic;html=1;rounded=0;" edge="1" parent="1">
          <mxGeometry width="50" height="50" relative="1" as="geometry">
            <mxPoint x="350" y="390" as="sourcePoint" />
            <mxPoint x="570" y="390" as="targetPoint" />
          </mxGeometry>
        </mxCell>
        <mxCell id="-EQdU9CbAoRiwT4EUDCg-19" value="&lt;font face=&quot;Comic Sans MS&quot;&gt;releaseShared()&lt;/font&gt;" style="text;html=1;align=center;verticalAlign=middle;resizable=0;points=[];autosize=1;strokeColor=none;fillColor=none;" vertex="1" parent="1">
          <mxGeometry x="400" y="360" width="110" height="30" as="geometry" />
        </mxCell>
        <mxCell id="-EQdU9CbAoRiwT4EUDCg-20" value="" style="endArrow=classic;html=1;rounded=0;" edge="1" parent="1">
          <mxGeometry width="50" height="50" relative="1" as="geometry">
            <mxPoint x="570" y="440" as="sourcePoint" />
            <mxPoint x="350" y="440" as="targetPoint" />
          </mxGeometry>
        </mxCell>
        <mxCell id="-EQdU9CbAoRiwT4EUDCg-21" value="&lt;font face=&quot;Comic Sans MS&quot;&gt;Sync内部重写tryReleaseShared()&lt;/font&gt;" style="text;html=1;align=center;verticalAlign=middle;resizable=0;points=[];autosize=1;strokeColor=none;fillColor=none;" vertex="1" parent="1">
          <mxGeometry x="355" y="410" width="210" height="30" as="geometry" />
        </mxCell>
        <mxCell id="-EQdU9CbAoRiwT4EUDCg-23" value="&lt;b&gt;CountDownLatch原理&lt;/b&gt;" style="text;html=1;align=center;verticalAlign=middle;resizable=0;points=[];autosize=1;strokeColor=none;fillColor=none;" vertex="1" parent="1">
          <mxGeometry x="65" y="70" width="150" height="30" as="geometry" />
        </mxCell>
      </root>
    </mxGraphModel>
  </diagram>
</mxfile>
